<mxfile host="app.diagrams.net" modified="2023-11-07T10:17:31.861Z" agent="Mozilla/5.0 (Windows NT 10.0; Win64; x64) AppleWebKit/537.36 (KHTML, like Gecko) Chrome/119.0.0.0 Safari/537.36 Edg/119.0.0.0" etag="LDNAtqwCxk2Y3UrTVvwq" version="22.0.8" type="github">
  <diagram id="C5RBs43oDa-KdzZeNtuy" name="Page-1">
    <mxGraphModel dx="557" dy="703" grid="1" gridSize="10" guides="1" tooltips="1" connect="1" arrows="1" fold="1" page="1" pageScale="1" pageWidth="827" pageHeight="1169" math="0" shadow="0">
      <root>
        <mxCell id="WIyWlLk6GJQsqaUBKTNV-0" />
        <mxCell id="WIyWlLk6GJQsqaUBKTNV-1" parent="WIyWlLk6GJQsqaUBKTNV-0" />
        <mxCell id="H7-lfNiGQ1N1Gm9Fty0V-91" value="" style="whiteSpace=wrap;html=1;fillColor=#999999;" vertex="1" parent="WIyWlLk6GJQsqaUBKTNV-1">
          <mxGeometry width="660" height="710" as="geometry" />
        </mxCell>
        <mxCell id="H7-lfNiGQ1N1Gm9Fty0V-92" value="" style="rounded=0;whiteSpace=wrap;html=1;" vertex="1" parent="WIyWlLk6GJQsqaUBKTNV-1">
          <mxGeometry x="425" y="10" width="235" height="30" as="geometry" />
        </mxCell>
        <mxCell id="H7-lfNiGQ1N1Gm9Fty0V-78" style="edgeStyle=orthogonalEdgeStyle;rounded=0;orthogonalLoop=1;jettySize=auto;html=1;exitX=0.5;exitY=1;exitDx=0;exitDy=0;entryX=0.5;entryY=0;entryDx=0;entryDy=0;" edge="1" parent="WIyWlLk6GJQsqaUBKTNV-1" source="H7-lfNiGQ1N1Gm9Fty0V-14" target="H7-lfNiGQ1N1Gm9Fty0V-82">
          <mxGeometry relative="1" as="geometry">
            <mxPoint x="300" y="140" as="targetPoint" />
          </mxGeometry>
        </mxCell>
        <mxCell id="H7-lfNiGQ1N1Gm9Fty0V-14" value="Start Program" style="ellipse;whiteSpace=wrap;html=1;fillColor=#67AB9F;" vertex="1" parent="WIyWlLk6GJQsqaUBKTNV-1">
          <mxGeometry x="240" width="120" height="80" as="geometry" />
        </mxCell>
        <mxCell id="H7-lfNiGQ1N1Gm9Fty0V-69" style="edgeStyle=orthogonalEdgeStyle;rounded=0;orthogonalLoop=1;jettySize=auto;html=1;entryX=0.5;entryY=0;entryDx=0;entryDy=0;exitX=1;exitY=0.5;exitDx=0;exitDy=0;" edge="1" parent="WIyWlLk6GJQsqaUBKTNV-1" source="H7-lfNiGQ1N1Gm9Fty0V-82" target="H7-lfNiGQ1N1Gm9Fty0V-19">
          <mxGeometry relative="1" as="geometry">
            <mxPoint x="327.5" y="200" as="sourcePoint" />
          </mxGeometry>
        </mxCell>
        <mxCell id="H7-lfNiGQ1N1Gm9Fty0V-70" value="No %" style="edgeLabel;html=1;align=center;verticalAlign=middle;resizable=0;points=[];" vertex="1" connectable="0" parent="H7-lfNiGQ1N1Gm9Fty0V-69">
          <mxGeometry x="0.0237" y="1" relative="1" as="geometry">
            <mxPoint as="offset" />
          </mxGeometry>
        </mxCell>
        <mxCell id="H7-lfNiGQ1N1Gm9Fty0V-71" style="edgeStyle=orthogonalEdgeStyle;rounded=0;orthogonalLoop=1;jettySize=auto;html=1;exitX=0.5;exitY=1;exitDx=0;exitDy=0;entryX=1;entryY=0.5;entryDx=0;entryDy=0;" edge="1" parent="WIyWlLk6GJQsqaUBKTNV-1" source="H7-lfNiGQ1N1Gm9Fty0V-82" target="H7-lfNiGQ1N1Gm9Fty0V-27">
          <mxGeometry relative="1" as="geometry">
            <mxPoint x="272.5" y="200" as="sourcePoint" />
          </mxGeometry>
        </mxCell>
        <mxCell id="H7-lfNiGQ1N1Gm9Fty0V-72" value="yes %" style="edgeLabel;html=1;align=center;verticalAlign=middle;resizable=0;points=[];" vertex="1" connectable="0" parent="H7-lfNiGQ1N1Gm9Fty0V-71">
          <mxGeometry x="-0.1" y="2" relative="1" as="geometry">
            <mxPoint as="offset" />
          </mxGeometry>
        </mxCell>
        <mxCell id="H7-lfNiGQ1N1Gm9Fty0V-19" value="Print Text" style="rounded=1;whiteSpace=wrap;html=1;fillColor=#99FFFF;" vertex="1" parent="WIyWlLk6GJQsqaUBKTNV-1">
          <mxGeometry x="387.5" y="210" width="100" height="40" as="geometry" />
        </mxCell>
        <mxCell id="H7-lfNiGQ1N1Gm9Fty0V-77" style="edgeStyle=orthogonalEdgeStyle;rounded=0;orthogonalLoop=1;jettySize=auto;html=1;exitX=0.5;exitY=1;exitDx=0;exitDy=0;entryX=0.5;entryY=0;entryDx=0;entryDy=0;" edge="1" parent="WIyWlLk6GJQsqaUBKTNV-1" source="H7-lfNiGQ1N1Gm9Fty0V-23" target="H7-lfNiGQ1N1Gm9Fty0V-34">
          <mxGeometry relative="1" as="geometry" />
        </mxCell>
        <mxCell id="H7-lfNiGQ1N1Gm9Fty0V-23" value="Handle Conversion Specifier" style="rounded=1;whiteSpace=wrap;html=1;fillColor=#99FFFF;" vertex="1" parent="WIyWlLk6GJQsqaUBKTNV-1">
          <mxGeometry x="78.75" y="320" width="120" height="45" as="geometry" />
        </mxCell>
        <mxCell id="H7-lfNiGQ1N1Gm9Fty0V-73" style="edgeStyle=orthogonalEdgeStyle;rounded=0;orthogonalLoop=1;jettySize=auto;html=1;exitX=0.75;exitY=1;exitDx=0;exitDy=0;entryX=0.5;entryY=1;entryDx=0;entryDy=0;" edge="1" parent="WIyWlLk6GJQsqaUBKTNV-1" source="H7-lfNiGQ1N1Gm9Fty0V-27" target="H7-lfNiGQ1N1Gm9Fty0V-19">
          <mxGeometry relative="1" as="geometry" />
        </mxCell>
        <mxCell id="H7-lfNiGQ1N1Gm9Fty0V-74" value="No Specifier" style="edgeLabel;html=1;align=center;verticalAlign=middle;resizable=0;points=[];" vertex="1" connectable="0" parent="H7-lfNiGQ1N1Gm9Fty0V-73">
          <mxGeometry x="-0.035" y="-2" relative="1" as="geometry">
            <mxPoint as="offset" />
          </mxGeometry>
        </mxCell>
        <mxCell id="H7-lfNiGQ1N1Gm9Fty0V-75" style="edgeStyle=orthogonalEdgeStyle;rounded=0;orthogonalLoop=1;jettySize=auto;html=1;exitX=0.5;exitY=1;exitDx=0;exitDy=0;entryX=0.5;entryY=0;entryDx=0;entryDy=0;fillColor=#33FF99;" edge="1" parent="WIyWlLk6GJQsqaUBKTNV-1" source="H7-lfNiGQ1N1Gm9Fty0V-27" target="H7-lfNiGQ1N1Gm9Fty0V-23">
          <mxGeometry relative="1" as="geometry" />
        </mxCell>
        <mxCell id="H7-lfNiGQ1N1Gm9Fty0V-76" value="yes Specifier" style="edgeLabel;html=1;align=center;verticalAlign=middle;resizable=0;points=[];fillColor=99FFFF;" vertex="1" connectable="0" parent="H7-lfNiGQ1N1Gm9Fty0V-75">
          <mxGeometry x="0.0323" relative="1" as="geometry">
            <mxPoint as="offset" />
          </mxGeometry>
        </mxCell>
        <mxCell id="H7-lfNiGQ1N1Gm9Fty0V-27" value="Checks if there is a Conversion Specifier" style="rounded=1;whiteSpace=wrap;html=1;fillColor=#99FFFF;" vertex="1" parent="WIyWlLk6GJQsqaUBKTNV-1">
          <mxGeometry x="78.75" y="200" width="120" height="60" as="geometry" />
        </mxCell>
        <mxCell id="H7-lfNiGQ1N1Gm9Fty0V-80" style="edgeStyle=orthogonalEdgeStyle;rounded=0;orthogonalLoop=1;jettySize=auto;html=1;exitX=1;exitY=0.5;exitDx=0;exitDy=0;entryX=0;entryY=0.5;entryDx=0;entryDy=0;" edge="1" parent="WIyWlLk6GJQsqaUBKTNV-1" source="H7-lfNiGQ1N1Gm9Fty0V-34" target="H7-lfNiGQ1N1Gm9Fty0V-36">
          <mxGeometry relative="1" as="geometry" />
        </mxCell>
        <mxCell id="H7-lfNiGQ1N1Gm9Fty0V-34" value="Get Specifier" style="whiteSpace=wrap;html=1;rounded=1;fillColor=#99FFFF;" vertex="1" parent="WIyWlLk6GJQsqaUBKTNV-1">
          <mxGeometry x="90" y="410" width="97.5" height="37.5" as="geometry" />
        </mxCell>
        <mxCell id="H7-lfNiGQ1N1Gm9Fty0V-38" style="edgeStyle=orthogonalEdgeStyle;rounded=0;orthogonalLoop=1;jettySize=auto;html=1;exitX=0.75;exitY=1;exitDx=0;exitDy=0;entryX=0.5;entryY=0;entryDx=0;entryDy=0;" edge="1" parent="WIyWlLk6GJQsqaUBKTNV-1" source="H7-lfNiGQ1N1Gm9Fty0V-36" target="H7-lfNiGQ1N1Gm9Fty0V-44">
          <mxGeometry relative="1" as="geometry">
            <mxPoint x="160" y="640" as="targetPoint" />
          </mxGeometry>
        </mxCell>
        <mxCell id="H7-lfNiGQ1N1Gm9Fty0V-39" style="edgeStyle=orthogonalEdgeStyle;rounded=0;orthogonalLoop=1;jettySize=auto;html=1;exitX=0.5;exitY=1;exitDx=0;exitDy=0;entryX=0.5;entryY=0;entryDx=0;entryDy=0;" edge="1" parent="WIyWlLk6GJQsqaUBKTNV-1" source="H7-lfNiGQ1N1Gm9Fty0V-36" target="H7-lfNiGQ1N1Gm9Fty0V-42">
          <mxGeometry relative="1" as="geometry">
            <mxPoint x="60" y="640" as="targetPoint" />
          </mxGeometry>
        </mxCell>
        <mxCell id="H7-lfNiGQ1N1Gm9Fty0V-41" style="edgeStyle=orthogonalEdgeStyle;rounded=0;orthogonalLoop=1;jettySize=auto;html=1;exitX=0.25;exitY=1;exitDx=0;exitDy=0;entryX=0.5;entryY=0;entryDx=0;entryDy=0;" edge="1" parent="WIyWlLk6GJQsqaUBKTNV-1" source="H7-lfNiGQ1N1Gm9Fty0V-36" target="H7-lfNiGQ1N1Gm9Fty0V-45">
          <mxGeometry relative="1" as="geometry">
            <mxPoint x="-40" y="640" as="targetPoint" />
          </mxGeometry>
        </mxCell>
        <mxCell id="H7-lfNiGQ1N1Gm9Fty0V-46" style="edgeStyle=orthogonalEdgeStyle;rounded=0;orthogonalLoop=1;jettySize=auto;html=1;exitX=1;exitY=0.5;exitDx=0;exitDy=0;entryX=0.5;entryY=0;entryDx=0;entryDy=0;" edge="1" parent="WIyWlLk6GJQsqaUBKTNV-1" source="H7-lfNiGQ1N1Gm9Fty0V-36" target="H7-lfNiGQ1N1Gm9Fty0V-47">
          <mxGeometry relative="1" as="geometry">
            <mxPoint x="240" y="600" as="targetPoint" />
          </mxGeometry>
        </mxCell>
        <mxCell id="H7-lfNiGQ1N1Gm9Fty0V-36" value="Is Specifier" style="whiteSpace=wrap;html=1;rounded=1;fillColor=#99FFFF;" vertex="1" parent="WIyWlLk6GJQsqaUBKTNV-1">
          <mxGeometry x="255" y="310" width="90" height="32.5" as="geometry" />
        </mxCell>
        <mxCell id="H7-lfNiGQ1N1Gm9Fty0V-49" style="edgeStyle=orthogonalEdgeStyle;rounded=0;orthogonalLoop=1;jettySize=auto;html=1;exitX=0.5;exitY=1;exitDx=0;exitDy=0;entryX=0.5;entryY=0;entryDx=0;entryDy=0;" edge="1" parent="WIyWlLk6GJQsqaUBKTNV-1" source="H7-lfNiGQ1N1Gm9Fty0V-42" target="H7-lfNiGQ1N1Gm9Fty0V-48">
          <mxGeometry relative="1" as="geometry" />
        </mxCell>
        <mxCell id="H7-lfNiGQ1N1Gm9Fty0V-42" value="%d" style="rounded=1;whiteSpace=wrap;html=1;fillColor=#3399FF;" vertex="1" parent="WIyWlLk6GJQsqaUBKTNV-1">
          <mxGeometry x="282.5" y="390" width="35" height="30" as="geometry" />
        </mxCell>
        <mxCell id="H7-lfNiGQ1N1Gm9Fty0V-51" style="edgeStyle=orthogonalEdgeStyle;rounded=0;orthogonalLoop=1;jettySize=auto;html=1;exitX=0.5;exitY=1;exitDx=0;exitDy=0;entryX=0.5;entryY=0;entryDx=0;entryDy=0;" edge="1" parent="WIyWlLk6GJQsqaUBKTNV-1" source="H7-lfNiGQ1N1Gm9Fty0V-44" target="H7-lfNiGQ1N1Gm9Fty0V-48">
          <mxGeometry relative="1" as="geometry" />
        </mxCell>
        <mxCell id="H7-lfNiGQ1N1Gm9Fty0V-44" value="%c" style="rounded=1;whiteSpace=wrap;html=1;fillColor=#00FF80;" vertex="1" parent="WIyWlLk6GJQsqaUBKTNV-1">
          <mxGeometry x="340" y="390" width="35" height="30" as="geometry" />
        </mxCell>
        <mxCell id="H7-lfNiGQ1N1Gm9Fty0V-53" style="edgeStyle=orthogonalEdgeStyle;rounded=0;orthogonalLoop=1;jettySize=auto;html=1;exitX=0.5;exitY=1;exitDx=0;exitDy=0;entryX=0.5;entryY=0;entryDx=0;entryDy=0;" edge="1" parent="WIyWlLk6GJQsqaUBKTNV-1" source="H7-lfNiGQ1N1Gm9Fty0V-45" target="H7-lfNiGQ1N1Gm9Fty0V-48">
          <mxGeometry relative="1" as="geometry" />
        </mxCell>
        <mxCell id="H7-lfNiGQ1N1Gm9Fty0V-45" value="%s" style="rounded=1;whiteSpace=wrap;html=1;fillColor=#FF8000;" vertex="1" parent="WIyWlLk6GJQsqaUBKTNV-1">
          <mxGeometry x="230" y="390" width="35" height="30" as="geometry" />
        </mxCell>
        <mxCell id="H7-lfNiGQ1N1Gm9Fty0V-52" style="edgeStyle=orthogonalEdgeStyle;rounded=0;orthogonalLoop=1;jettySize=auto;html=1;exitX=0.5;exitY=1;exitDx=0;exitDy=0;entryX=0.5;entryY=0;entryDx=0;entryDy=0;" edge="1" parent="WIyWlLk6GJQsqaUBKTNV-1" source="H7-lfNiGQ1N1Gm9Fty0V-47" target="H7-lfNiGQ1N1Gm9Fty0V-48">
          <mxGeometry relative="1" as="geometry" />
        </mxCell>
        <mxCell id="H7-lfNiGQ1N1Gm9Fty0V-47" value="%i" style="rounded=1;whiteSpace=wrap;html=1;fillColor=#3399FF;" vertex="1" parent="WIyWlLk6GJQsqaUBKTNV-1">
          <mxGeometry x="400" y="390" width="35" height="30" as="geometry" />
        </mxCell>
        <mxCell id="H7-lfNiGQ1N1Gm9Fty0V-61" style="edgeStyle=orthogonalEdgeStyle;rounded=0;orthogonalLoop=1;jettySize=auto;html=1;exitX=0.25;exitY=1;exitDx=0;exitDy=0;entryX=0.5;entryY=0;entryDx=0;entryDy=0;" edge="1" parent="WIyWlLk6GJQsqaUBKTNV-1" source="H7-lfNiGQ1N1Gm9Fty0V-48" target="H7-lfNiGQ1N1Gm9Fty0V-54">
          <mxGeometry relative="1" as="geometry" />
        </mxCell>
        <mxCell id="H7-lfNiGQ1N1Gm9Fty0V-62" style="edgeStyle=orthogonalEdgeStyle;rounded=0;orthogonalLoop=1;jettySize=auto;html=1;exitX=0.75;exitY=1;exitDx=0;exitDy=0;entryX=0.5;entryY=0;entryDx=0;entryDy=0;" edge="1" parent="WIyWlLk6GJQsqaUBKTNV-1" source="H7-lfNiGQ1N1Gm9Fty0V-48" target="H7-lfNiGQ1N1Gm9Fty0V-56">
          <mxGeometry relative="1" as="geometry" />
        </mxCell>
        <mxCell id="H7-lfNiGQ1N1Gm9Fty0V-63" style="edgeStyle=orthogonalEdgeStyle;rounded=0;orthogonalLoop=1;jettySize=auto;html=1;exitX=0.5;exitY=1;exitDx=0;exitDy=0;entryX=0.5;entryY=0;entryDx=0;entryDy=0;" edge="1" parent="WIyWlLk6GJQsqaUBKTNV-1" source="H7-lfNiGQ1N1Gm9Fty0V-48" target="H7-lfNiGQ1N1Gm9Fty0V-55">
          <mxGeometry relative="1" as="geometry" />
        </mxCell>
        <mxCell id="H7-lfNiGQ1N1Gm9Fty0V-48" value="Call Appropriate Function" style="rounded=1;whiteSpace=wrap;html=1;fillColor=#99FFFF;" vertex="1" parent="WIyWlLk6GJQsqaUBKTNV-1">
          <mxGeometry x="270" y="470" width="120" height="60" as="geometry" />
        </mxCell>
        <mxCell id="H7-lfNiGQ1N1Gm9Fty0V-67" style="edgeStyle=orthogonalEdgeStyle;rounded=0;orthogonalLoop=1;jettySize=auto;html=1;exitX=0.5;exitY=1;exitDx=0;exitDy=0;entryX=0.5;entryY=0;entryDx=0;entryDy=0;" edge="1" parent="WIyWlLk6GJQsqaUBKTNV-1" source="H7-lfNiGQ1N1Gm9Fty0V-54" target="H7-lfNiGQ1N1Gm9Fty0V-64">
          <mxGeometry relative="1" as="geometry" />
        </mxCell>
        <mxCell id="H7-lfNiGQ1N1Gm9Fty0V-54" value="Rune_s" style="rounded=1;whiteSpace=wrap;html=1;fillColor=#FF8000;" vertex="1" parent="WIyWlLk6GJQsqaUBKTNV-1">
          <mxGeometry x="230" y="570" width="45" height="30" as="geometry" />
        </mxCell>
        <mxCell id="H7-lfNiGQ1N1Gm9Fty0V-65" style="edgeStyle=orthogonalEdgeStyle;rounded=0;orthogonalLoop=1;jettySize=auto;html=1;exitX=0.5;exitY=1;exitDx=0;exitDy=0;entryX=0.5;entryY=0;entryDx=0;entryDy=0;" edge="1" parent="WIyWlLk6GJQsqaUBKTNV-1" source="H7-lfNiGQ1N1Gm9Fty0V-55" target="H7-lfNiGQ1N1Gm9Fty0V-64">
          <mxGeometry relative="1" as="geometry" />
        </mxCell>
        <mxCell id="H7-lfNiGQ1N1Gm9Fty0V-55" value="Rune_c" style="rounded=1;whiteSpace=wrap;html=1;fillColor=#00FF00;" vertex="1" parent="WIyWlLk6GJQsqaUBKTNV-1">
          <mxGeometry x="305" y="570" width="50" height="30" as="geometry" />
        </mxCell>
        <mxCell id="H7-lfNiGQ1N1Gm9Fty0V-66" style="edgeStyle=orthogonalEdgeStyle;rounded=0;orthogonalLoop=1;jettySize=auto;html=1;exitX=0.5;exitY=1;exitDx=0;exitDy=0;entryX=0.5;entryY=0;entryDx=0;entryDy=0;" edge="1" parent="WIyWlLk6GJQsqaUBKTNV-1" source="H7-lfNiGQ1N1Gm9Fty0V-56" target="H7-lfNiGQ1N1Gm9Fty0V-64">
          <mxGeometry relative="1" as="geometry" />
        </mxCell>
        <mxCell id="H7-lfNiGQ1N1Gm9Fty0V-56" value="Rune_d" style="rounded=1;whiteSpace=wrap;html=1;fillColor=#3399FF;" vertex="1" parent="WIyWlLk6GJQsqaUBKTNV-1">
          <mxGeometry x="375" y="570" width="50" height="30" as="geometry" />
        </mxCell>
        <mxCell id="H7-lfNiGQ1N1Gm9Fty0V-81" style="edgeStyle=orthogonalEdgeStyle;rounded=0;orthogonalLoop=1;jettySize=auto;html=1;exitX=1;exitY=0.5;exitDx=0;exitDy=0;entryX=0.5;entryY=0;entryDx=0;entryDy=0;" edge="1" parent="WIyWlLk6GJQsqaUBKTNV-1" source="H7-lfNiGQ1N1Gm9Fty0V-64" target="H7-lfNiGQ1N1Gm9Fty0V-82">
          <mxGeometry relative="1" as="geometry">
            <mxPoint x="470" y="100" as="targetPoint" />
            <Array as="points">
              <mxPoint x="520" y="655" />
              <mxPoint x="520" y="100" />
            </Array>
          </mxGeometry>
        </mxCell>
        <mxCell id="H7-lfNiGQ1N1Gm9Fty0V-64" value="Print Argument" style="rounded=1;whiteSpace=wrap;html=1;fillColor=#99FFFF;" vertex="1" parent="WIyWlLk6GJQsqaUBKTNV-1">
          <mxGeometry x="285" y="640" width="90" height="30" as="geometry" />
        </mxCell>
        <mxCell id="H7-lfNiGQ1N1Gm9Fty0V-82" value="Parse Format String for &#39;%&#39;" style="rhombus;whiteSpace=wrap;html=1;fillColor=#99FFCC;" vertex="1" parent="WIyWlLk6GJQsqaUBKTNV-1">
          <mxGeometry x="212.5" y="100" width="175" height="120" as="geometry" />
        </mxCell>
        <mxCell id="H7-lfNiGQ1N1Gm9Fty0V-83" value="" style="endArrow=none;dashed=1;html=1;rounded=0;entryX=1;entryY=0.5;entryDx=0;entryDy=0;exitX=0;exitY=0.5;exitDx=0;exitDy=0;exitPerimeter=0;" edge="1" parent="WIyWlLk6GJQsqaUBKTNV-1" source="H7-lfNiGQ1N1Gm9Fty0V-84" target="H7-lfNiGQ1N1Gm9Fty0V-14">
          <mxGeometry width="50" height="50" relative="1" as="geometry">
            <mxPoint x="460" y="40" as="sourcePoint" />
            <mxPoint x="350" y="80" as="targetPoint" />
            <Array as="points" />
          </mxGeometry>
        </mxCell>
        <mxCell id="H7-lfNiGQ1N1Gm9Fty0V-84" value="Prototype:&amp;nbsp;int _printf(const char *format, ...);" style="strokeWidth=2;html=1;shape=mxgraph.flowchart.annotation_1;align=left;pointerEvents=1;fillColor=#99FFFF;" vertex="1" parent="WIyWlLk6GJQsqaUBKTNV-1">
          <mxGeometry x="425" y="10" width="20" height="30" as="geometry" />
        </mxCell>
      </root>
    </mxGraphModel>
  </diagram>
</mxfile>
